<svg aria-hidden="true" style="position: absolute; width: 0; height: 0; overflow: hidden;" version="1.1" xmlns="http://www.w3.org/2000/svg" xmlns:xlink="http://www.w3.org/1999/xlink">
<defs>
<symbol id="icon-bargraph" viewBox="0 0 36 32">
<path d="M26 10.5v20c0 0.176 0.036 0.343 0.092 0.5h-3.184c0.056-0.157 0.092-0.324 0.092-0.5v-29c0-0.827-0.673-1.5-1.5-1.5h-7c-0.827 0-1.5 0.673-1.5 1.5v29c0 0.176 0.036 0.343 0.092 0.5h-3.184c0.056-0.157 0.092-0.324 0.092-0.5v-11c0-0.827-0.673-1.5-1.5-1.5h-7c-0.827 0-1.5 0.673-1.5 1.5v11c0 0.827 0.673 1.5 1.5 1.5h33c0.827 0 1.5-0.673 1.5-1.5v-20c0-0.827-0.673-1.5-1.5-1.5h-7c-0.827 0-1.5 0.673-1.5 1.5zM5 31h-3.5c-0.275 0-0.5-0.224-0.5-0.5v-11c0-0.276 0.225-0.5 0.5-0.5h7c0.275 0 0.5 0.224 0.5 0.5v11c0 0.276-0.225 0.5-0.5 0.5h-3.5zM14.5 31c-0.275 0-0.5-0.224-0.5-0.5v-29c0-0.276 0.225-0.5 0.5-0.5h7c0.275 0 0.5 0.224 0.5 0.5v29c0 0.276-0.225 0.5-0.5 0.5h-7zM35 10.5v20c0 0.276-0.225 0.5-0.5 0.5h-7c-0.275 0-0.5-0.224-0.5-0.5v-20c0-0.276 0.225-0.5 0.5-0.5h7c0.275 0 0.5 0.224 0.5 0.5z"></path>
</symbol>
<symbol id="icon-chart" viewBox="0 0 32 32">
<path d="M3.987 4h-0.987v24h26v-0.963l-24.996-0.050-0.017-22.987zM17 5c0-0.553-0.448-1-1-1h-3c-0.553 0-1 0.447-1 1v20h5v-20zM11 11c0-0.552-0.448-1-1-1h-3c-0.553 0-1 0.448-1 1v14h5v-14zM23 17c0-0.553-0.448-1-1-1h-3c-0.553 0-1 0.447-1 1v8h5v-8zM28 22h-3c-0.553 0-1 0.447-1 1v2h5v-2c0-0.553-0.448-1-1-1z"></path>
</symbol>
<symbol id="icon-bar-chart" viewBox="0 0 24 24">
<path d="M13 20v-10c0-0.552-0.448-1-1-1s-1 0.448-1 1v10c0 0.552 0.448 1 1 1s1-0.448 1-1zM19 20v-16c0-0.552-0.448-1-1-1s-1 0.448-1 1v16c0 0.552 0.448 1 1 1s1-0.448 1-1zM7 20v-4c0-0.552-0.448-1-1-1s-1 0.448-1 1v4c0 0.552 0.448 1 1 1s1-0.448 1-1z"></path>
</symbol>
<symbol id="icon-bar-graph" viewBox="0 0 20 20">
<path d="M17 1h-2c-0.552 0-1 0.447-1 1v16.992h4v-16.992c0-0.553-0.447-1-1-1zM11 7h-2c-0.552 0-1 0.447-1 1v10.992h4v-10.992c0-0.553-0.447-1-1-1zM5 13h-2c-0.552 0-1 0.447-1 1v4.992h4v-4.992c0-0.553-0.447-1-1-1z"></path>
</symbol>
<symbol id="icon-chart-bar" viewBox="0 0 20 20">
<path d="M1 10h3v10h-3v-10zM6 0h3v20h-3v-20zM11 8h3v12h-3v-12zM16 4h3v16h-3v-16z"></path>
</symbol>
<symbol id="icon-bar-chart1" viewBox="0 0 32 28">
<path d="M10 14v8h-4v-8h4zM16 6v16h-4v-16h4zM32 24v2h-32v-24h2v22h30zM22 10v12h-4v-12h4zM28 4v18h-4v-18h4z"></path>
</symbol>
<symbol id="icon-bitcoin" viewBox="0 0 21 28">
<path d="M18.234 10c0.203 2.078-0.672 3.328-2.047 4.031 2.281 0.547 3.719 1.906 3.437 4.953-0.359 3.797-3.172 4.813-7.203 5.031v3.984h-2.406v-3.922c-0.609 0-1.25 0-1.906-0.016v3.938h-2.406v-3.984c-0.562 0-1.125-0.016-1.703-0.016h-3.125l0.484-2.859c1.766 0.031 1.734 0 1.734 0 0.672 0 0.859-0.484 0.906-0.797v-6.281h0.25c-0.094-0.016-0.187-0.016-0.25-0.016v-4.484c-0.094-0.5-0.406-1.062-1.391-1.062 0 0 0.031-0.031-1.734 0v-2.562l3.313 0.016c0.484 0 1 0 1.516-0.016v-3.938h2.406v3.859c0.641-0.016 1.281-0.031 1.906-0.031v-3.828h2.406v3.938c3.094 0.266 5.547 1.219 5.812 4.062zM14.875 18.516c0-3.094-5.094-2.641-6.719-2.641v5.281c1.625 0 6.719 0.344 6.719-2.641zM13.766 11.078c0-2.828-4.25-2.406-5.609-2.406v4.797c1.359 0 5.609 0.313 5.609-2.391z"></path>
</symbol>
<symbol id="icon-coin-dollar" viewBox="0 0 32 32">
<path d="M15 2c-8.284 0-15 6.716-15 15s6.716 15 15 15c8.284 0 15-6.716 15-15s-6.716-15-15-15zM15 29c-6.627 0-12-5.373-12-12s5.373-12 12-12c6.627 0 12 5.373 12 12s-5.373 12-12 12zM16 16v-4h4v-2h-4v-2h-2v2h-4v8h4v4h-4v2h4v2h2v-2h4l-0-8h-4zM14 16h-2v-4h2v4zM18 22h-2v-4h2v4z"></path>
</symbol>
<symbol id="icon-stats-dots" viewBox="0 0 32 32">
<path d="M4 28h28v4h-32v-32h4zM9 26c-1.657 0-3-1.343-3-3s1.343-3 3-3c0.088 0 0.176 0.005 0.262 0.012l3.225-5.375c-0.307-0.471-0.487-1.033-0.487-1.638 0-1.657 1.343-3 3-3s3 1.343 3 3c0 0.604-0.179 1.167-0.487 1.638l3.225 5.375c0.086-0.007 0.174-0.012 0.262-0.012 0.067 0 0.133 0.003 0.198 0.007l5.324-9.316c-0.329-0.482-0.522-1.064-0.522-1.691 0-1.657 1.343-3 3-3s3 1.343 3 3c0 1.657-1.343 3-3 3-0.067 0-0.133-0.003-0.198-0.007l-5.324 9.316c0.329 0.481 0.522 1.064 0.522 1.691 0 1.657-1.343 3-3 3s-3-1.343-3-3c0-0.604 0.179-1.167 0.487-1.638l-3.225-5.375c-0.086 0.007-0.174 0.012-0.262 0.012s-0.176-0.005-0.262-0.012l-3.225 5.375c0.307 0.471 0.487 1.033 0.487 1.637 0 1.657-1.343 3-3 3z"></path>
</symbol>
<symbol id="icon-stats-bars" viewBox="0 0 32 32">
<path d="M0 26h32v4h-32zM4 18h4v6h-4zM10 10h4v14h-4zM16 16h4v8h-4zM22 4h4v20h-4z"></path>
</symbol>
</defs>
</svg>
